<svg width="60" height="60" viewBox="0 0 60 60" fill="none" xmlns="http://www.w3.org/2000/svg">
<path d="M25.5 1.36305L3 16.7938C1.125 18.0969 0 20.12 0 22.2803V53.1419C0 56.9138 3.375 60 7.5 60H52.5C56.625 60 60 56.9138 60 53.1419V22.2803C60 20.12 58.875 18.0969 57 16.7938L34.5 1.36305C31.8375 -0.454351 28.1625 -0.454351 25.5 1.36305Z" fill="#4D2222"/>
<path d="M44.9121 20.8008H25.6621V24.6413L28.8296 26.9617C29.0396 27.1057 29.1621 27.3457 29.1621 27.5858V34.4027C29.1621 34.8508 28.7771 35.2028 28.2871 35.2028H21.2871C20.7971 35.2028 20.4121 34.8508 20.4121 34.4027V27.5858C20.4121 27.3457 20.5346 27.1057 20.7446 26.9617L23.9121 24.6413V20.8008H16.9121V36.8031C16.9121 40.3396 20.0446 43.204 23.9121 43.204H34.4121C38.2796 43.204 41.4121 40.3396 41.4121 36.8031V32.0024H44.9121C46.8546 32.0024 48.4121 30.5622 48.4121 28.8019V24.0012C48.4121 22.225 46.8546 20.8008 44.9121 20.8008ZM44.9121 28.8019H41.4121V24.0012H44.9121V28.8019Z" fill="white"/>
<path d="M16.9121 46.4043H44.9121V49.6048H16.9121V46.4043Z" fill="white"/>
</svg>
