<svg width="60" height="60" viewBox="0 0 60 60" fill="none" xmlns="http://www.w3.org/2000/svg">
<path d="M25.5 1.36305L3 16.7938C1.125 18.0969 0 20.12 0 22.2803V53.1419C0 56.9138 3.375 60 7.5 60H52.5C56.625 60 60 56.9138 60 53.1419V22.2803C60 20.12 58.875 18.0969 57 16.7938L34.5 1.36305C31.8375 -0.454351 28.1625 -0.454351 25.5 1.36305Z" fill="#4D2222"/>
<path fill-rule="evenodd" clip-rule="evenodd" d="M15.8964 49.6424C15.8964 49.6424 4.48477 39.7112 13.4125 34.604C22.3403 29.4967 24.485 34.0797 25.6405 26.8372C26.7959 19.5946 27.4426 15.7669 37.9331 19.38C48.4237 22.993 45.2811 26.6643 47.5504 32.0498C49.8196 37.4353 52.2097 44.4254 46.2549 47.9912C40.3001 51.557 41.8459 53.7001 38.4958 53.6556C35.1457 53.6111 39.0667 51.4313 28.9362 51.9358C18.8058 52.4403 15.8964 49.6424 15.8964 49.6424V49.6424Z" fill="white"/>
<path d="M35.3388 37.2752C39.394 37.2752 42.6815 33.9878 42.6815 29.9325C42.6815 25.8773 39.394 22.5898 35.3388 22.5898C31.2835 22.5898 27.9961 25.8773 27.9961 29.9325C27.9961 33.9878 31.2835 37.2752 35.3388 37.2752Z" fill="#4D2222"/>
<path d="M35.3362 24.5898C32.387 24.5898 29.9961 26.9807 29.9961 29.93" stroke="white" stroke-width="0.628301" stroke-linecap="round"/>
</svg>
