<svg width="60" height="60" viewBox="0 0 60 60" fill="none" xmlns="http://www.w3.org/2000/svg">
<path d="M25.5 1.36305L3 16.7938C1.125 18.0969 0 20.12 0 22.2803V53.1419C0 56.9138 3.375 60 7.5 60H52.5C56.625 60 60 56.9138 60 53.1419V22.2803C60 20.12 58.875 18.0969 57 16.7938L34.5 1.36305C31.8375 -0.454351 28.1625 -0.454351 25.5 1.36305ZM31.875 30.853C31.875 33.6991 29.3625 35.9966 26.25 35.9966V47.9983C26.25 48.9584 25.425 49.7128 24.375 49.7128C23.325 49.7128 22.5 48.9584 22.5 47.9983V35.9966C19.3875 35.9966 16.875 33.6991 16.875 30.853V22.2803C16.875 21.3202 17.7 20.5658 18.75 20.5658C19.8 20.5658 20.625 21.3202 20.625 22.2803V30.853H22.5V22.2803C22.5 21.3202 23.325 20.5658 24.375 20.5658C25.425 20.5658 26.25 21.3202 26.25 22.2803V30.853H28.125V22.2803C28.125 21.3202 28.95 20.5658 30 20.5658C31.05 20.5658 31.875 21.3202 31.875 22.2803V30.853ZM39.375 49.7128C38.325 49.7128 37.5 48.9584 37.5 47.9983V37.7111H35.625C34.575 37.7111 33.75 36.9567 33.75 35.9966V27.4239C33.75 24.4063 35.8875 21.8345 38.85 20.943C40.0125 20.5658 41.25 21.4231 41.25 22.5889V47.9983C41.25 48.9584 40.425 49.7128 39.375 49.7128Z" fill="#4D2222"/>
</svg>
