<svg width="30" height="30" viewBox="0 0 30 30" fill="none" xmlns="http://www.w3.org/2000/svg">
<path d="M27.4675 5.49296H2.53247C1.12987 5.49296 0 4.26761 0 2.74648C0 1.22535 1.12987 0 2.53247 0H27.4675C28.8701 0 30 1.22535 30 2.74648C30 4.26761 28.8701 5.49296 27.4675 5.49296ZM30 15C30 13.4789 28.8701 12.2535 27.4675 12.2535H2.53247C1.12987 12.2535 0 13.4789 0 15C0 16.5211 1.12987 17.7465 2.53247 17.7465H27.4675C28.8701 17.7465 30 16.5211 30 15ZM30 27.2535C30 25.7324 28.8701 24.507 27.4675 24.507H2.53247C1.12987 24.507 0 25.7324 0 27.2535C0 28.7746 1.12987 30 2.53247 30H27.4675C28.8701 30 30 28.7746 30 27.2535Z" fill="black"/>
</svg>
