<svg width="30" height="30" viewBox="0 0 30 30" fill="none" xmlns="http://www.w3.org/2000/svg">
<path d="M19.3957 15.0024L29.0874 5.31313C30.3042 4.09607 30.3042 2.13222 29.0874 0.91516C27.8706 -0.301902 25.9073 -0.301902 24.6905 0.91516L14.9988 10.6044L5.30951 0.912797C4.09273 -0.304266 2.12936 -0.304266 0.912581 0.912797C-0.304194 2.12986 -0.304194 4.0937 0.912581 5.31076L10.6043 15L0.912581 24.6892C-0.304194 25.9063 -0.304194 27.8701 0.912581 29.0872C2.13172 30.3043 4.10219 30.3043 5.30951 29.0872L15.0012 19.398L24.6929 29.0872C25.9096 30.3043 27.873 30.3043 29.0898 29.0872C30.2971 27.8701 30.2971 25.9063 29.078 24.6869L19.3957 15.0024Z" fill="black"/>
</svg>
