<svg width="60" height="60" viewBox="0 0 60 60" fill="none" xmlns="http://www.w3.org/2000/svg">
<path d="M25.5 1.36305L3 16.7938C1.125 18.0969 0 20.12 0 22.2803V53.1419C0 56.9138 3.375 60 7.5 60H52.5C56.625 60 60 56.9138 60 53.1419V22.2803C60 20.12 58.875 18.0969 57 16.7938L34.5 1.36305C31.8375 -0.454351 28.1625 -0.454351 25.5 1.36305Z" fill="#4D2222"/>
<path fill-rule="evenodd" clip-rule="evenodd" d="M46.9735 29.1254C47.533 21.9502 39.4892 16 29.5044 16C19.5196 16 11.4758 21.9502 12.0353 29.1254H46.9735Z" fill="white"/>
<path fill-rule="evenodd" clip-rule="evenodd" d="M17.858 36.7814C18.8198 36.7814 19.2219 37.0876 19.8689 37.5689C20.6558 38.1596 21.74 38.969 23.681 38.969C25.622 38.969 26.7062 38.1596 27.4931 37.5689C28.1401 37.0658 28.5248 36.7814 29.504 36.7814C30.4658 36.7814 30.868 37.0876 31.515 37.5689C32.3019 38.1596 33.386 38.969 35.327 38.969C37.2681 38.969 38.3522 38.1596 39.1391 37.5689C39.7861 37.0658 40.1708 36.7814 41.1501 36.7814C42.1118 36.7814 42.514 37.0876 43.161 37.5689C43.9479 38.1596 45.0321 38.9471 46.9556 38.969V34.6376C46.9556 34.6376 45.5742 34.2876 44.9272 33.8063C44.1403 33.2157 43.0561 32.4062 41.1151 32.4062C39.1741 32.4062 38.0899 33.2157 37.303 33.8063C36.656 34.3094 36.2538 34.5938 35.2921 34.5938C34.3303 34.5938 33.9281 34.2876 33.2811 33.8063C32.4942 33.2157 31.4101 32.4062 29.4691 32.4062C27.528 32.4062 26.4439 33.2157 25.657 33.8063C25.01 34.3094 24.6253 34.5938 23.646 34.5938C22.6843 34.5938 22.2821 34.2876 21.6351 33.8063C20.8482 33.2157 19.764 32.4062 17.823 32.4062C15.882 32.4062 14.7978 33.2157 14.011 33.8063C13.364 34.3094 12.9792 34.5938 12 34.5938V38.969C13.941 38.969 15.0252 38.1596 15.8645 37.5689C16.5115 37.0658 16.8962 36.7814 17.858 36.7814V36.7814Z" fill="white"/>
<path fill-rule="evenodd" clip-rule="evenodd" d="M12 42.25V46.6251C12 49.0315 13.5738 51.0003 15.4973 51.0003H43.4758C45.3993 51.0003 46.9731 49.0315 46.9731 46.6251V42.25H12Z" fill="white"/>
</svg>
