<svg width="439" height="53" viewBox="0 0 439 53" fill="none" xmlns="http://www.w3.org/2000/svg">
<g clip-path="url(#clip0_44_139)">
<g filter="url(#filter0_d_44_139)">
<path d="M4.1 25.5C4.1 20.7333 6.58333 17.05 11.55 14.45C16.55 11.85 23.6 10.55 32.7 10.55C37.8667 10.55 41.65 11.3333 44.05 12.9C46.45 14.4667 47.65 16.6 47.65 19.3C47.65 21.5667 46.8667 23.6 45.3 25.4C43.7667 27.2 41.6 28.5333 38.8 29.4C44.9333 30.1 48 32.25 48 35.85C48 37.7167 47.3333 39.2833 46 40.55C44.7 41.7833 42.9667 42.6667 40.8 43.2C37.1333 44.1 33.3667 44.55 29.5 44.55V43.55C30.2667 43.6167 31 43.65 31.7 43.65C35.0333 43.65 37.55 43.0667 39.25 41.9C41.3167 40.4667 42.35 38.5833 42.35 36.25C42.35 34.9167 41.9333 33.7333 41.1 32.7C40.3 31.6333 39.5 30.9 38.7 30.5L37.45 29.9C36.3833 30.1333 35.1833 30.25 33.85 30.25V29.25C37.05 29.25 39.9667 28.3333 42.6 26.5C45.2333 24.6667 46.55 22.2667 46.55 19.3C46.55 16.8333 45.3833 14.9333 43.05 13.6C40.75 12.2333 37.45 11.5333 33.15 11.5C31.3167 23.9 29.9167 32.4333 28.95 37.1C28.2833 40.7 26.6167 43.5167 23.95 45.55C21.2833 47.6167 18.4333 48.65 15.4 48.65V47.7C16.7 47.6 17.65 47.45 18.25 47.25C18.8833 47.0833 19.4167 46.7 19.85 46.1C20.2833 45.5333 20.6 44.85 20.8 44.05C21.1667 42.4167 21.45 40.8667 21.65 39.4L26.45 11.75C19.6167 12.3167 14.3333 13.8 10.6 16.2C6.9 18.5667 5.05 21.6667 5.05 25.5C5.05 27.2333 5.65 28.7 6.85 29.9C7.68333 30.7 8.78333 31.3167 10.15 31.75C11.5167 32.15 12.6333 32.3833 13.5 32.45C14.4 32.4833 14.8833 32.4667 14.95 32.4V33.45C11.0167 33.45 8.1 32.5167 6.2 30.65C4.8 29.35 4.1 27.6333 4.1 25.5ZM50.7734 23.35C51.7734 22.15 53.0234 21.55 54.5234 21.55C56.0568 21.55 57.2401 21.9333 58.0734 22.7C58.9068 23.4667 59.3234 24.55 59.3234 25.95V26.25C60.8234 23.1167 62.7734 21.55 65.1734 21.55C67.7401 21.55 69.0234 22.8833 69.0234 25.55C69.0234 26.65 68.6568 27.8167 67.9234 29.05C67.1901 30.2833 66.4568 31.4667 65.7234 32.6C64.9901 33.7 64.6234 34.6833 64.6234 35.55H63.4234C63.4234 34.3167 64.1401 32.65 65.5734 30.55C67.0068 28.45 67.7234 26.8333 67.7234 25.7C67.7234 24.5333 67.4901 23.75 67.0234 23.35C66.5901 22.9167 65.9234 22.7 65.0234 22.7C64.1568 22.7 63.2901 23.0833 62.4234 23.85C61.5901 24.6167 60.8901 25.5833 60.3234 26.75C59.4234 28.4833 58.8234 29.9 58.5234 31V31.05L56.7234 41H50.7234L54.0234 22.55C53.0234 22.65 52.1901 23.1167 51.5234 23.95L50.7734 23.35ZM79.3535 21.55C83.5868 21.55 85.7035 23.2333 85.7035 26.6C85.7035 28.7 84.7035 30.3 82.7035 31.4C80.7368 32.4667 77.9202 33.0167 74.2535 33.05C74.1868 34.25 74.1535 35.2 74.1535 35.9C74.1535 37.4 74.4868 38.5167 75.1535 39.25C75.8535 39.95 76.7202 40.3 77.7535 40.3C78.7868 40.3 79.7202 40.1 80.5535 39.7C81.4202 39.3 82.1035 38.8333 82.6035 38.3C83.1035 37.7333 83.5369 37.15 83.9035 36.55C84.5702 35.45 84.9035 34.75 84.9035 34.45L85.8035 34.85C85.7035 35.3833 85.4035 36.1 84.9035 37C84.4035 37.8667 83.8535 38.5833 83.2535 39.15C82.6535 39.7167 81.7702 40.25 80.6035 40.75C79.4368 41.2167 78.1368 41.45 76.7035 41.45C74.0035 41.45 71.9535 40.8167 70.5535 39.55C69.1868 38.25 68.5035 36.4833 68.5035 34.25C68.5035 30.2833 69.4868 27.1833 71.4535 24.95C73.4202 22.6833 76.0535 21.55 79.3535 21.55ZM84.4535 26.6C84.4535 25.5 84.1202 24.6 83.4535 23.9C82.8202 23.1667 81.8535 22.8 80.5535 22.8C79.2868 22.8 78.0368 23.5667 76.8035 25.1C75.6035 26.6333 74.8035 28.9 74.4035 31.9C81.1035 31.8667 84.4535 30.1 84.4535 26.6ZM104.577 41.45C101.643 41.45 100.043 40.1667 99.7766 37.6C98.3099 40.1667 96.4599 41.45 94.2266 41.45C91.9932 41.45 90.2099 40.7833 88.8766 39.45C87.5766 38.0833 86.9266 36.1833 86.9266 33.75C86.9266 29.95 87.8599 26.9667 89.7266 24.8C91.5932 22.6333 94.0099 21.55 96.9766 21.55C99.4099 21.55 101.027 22.7 101.827 25C101.993 24 102.177 23 102.377 22C104.843 22 106.677 21.9 107.877 21.7L108.527 21.55L105.077 40.45C106.077 40.35 106.91 39.8833 107.577 39.05L108.327 39.65C107.327 40.85 106.077 41.45 104.577 41.45ZM92.5766 36.3C92.5766 37.8 92.7599 38.85 93.1266 39.45C93.5266 40.0167 94.1266 40.3 94.9266 40.3C95.7266 40.3 96.5432 39.8667 97.3766 39C98.4766 37.8667 99.3599 36.4333 100.027 34.7C100.127 34.2667 100.31 33.2333 100.577 31.6C100.877 29.9333 101.127 28.5667 101.327 27.5C101.227 26.2333 100.877 25.1333 100.277 24.2C99.6766 23.2667 98.9266 22.8 98.0266 22.8C96.3932 22.8 95.0766 24.2667 94.0766 27.2C93.0766 30.1 92.5766 33.1333 92.5766 36.3ZM116.845 31.35L115.045 41H109.095L114.745 9.6C113.745 9.7 112.912 10.1667 112.245 11L111.495 10.4C112.495 9.2 113.745 8.6 115.245 8.6C116.779 8.6 117.962 8.98333 118.795 9.75C119.629 10.5167 120.045 11.6 120.045 13C120.045 13.2667 120.012 13.7 119.945 14.3C119.179 18.5333 118.345 23.1 117.445 28C118.279 25.9667 119.479 24.3833 121.045 23.25C122.612 22.1167 124.279 21.55 126.045 21.55C127.812 21.55 129.045 21.9 129.745 22.6C130.479 23.3 130.845 24.1833 130.845 25.25C130.845 26.2833 130.529 27.1333 129.895 27.8C129.262 28.4667 128.429 28.8 127.395 28.8C126.395 28.8 125.612 28.5167 125.045 27.95C124.512 27.35 124.245 26.4833 124.245 25.35C124.245 24.1833 124.645 23.3 125.445 22.7C122.245 23.0667 119.695 25.4333 117.795 29.8C118.262 29.7333 118.662 29.7 118.995 29.7C120.762 29.7 122.145 30.05 123.145 30.75C124.179 31.45 124.845 32.3167 125.145 33.35C125.445 34.35 125.662 35.3667 125.795 36.4C125.929 37.4 126.145 38.25 126.445 38.95C126.745 39.65 127.279 40 128.045 40C128.812 40 129.412 39.6833 129.845 39.05L130.595 39.65C130.362 40.1167 129.845 40.5333 129.045 40.9C128.245 41.2667 127.212 41.45 125.945 41.45C124.712 41.45 123.612 41.1333 122.645 40.5C121.712 39.8667 121.062 39.0833 120.695 38.15C120.329 37.1833 120.029 36.2333 119.795 35.3C119.162 32.9 118.179 31.5833 116.845 31.35ZM143.382 8.6C144.582 8.6 145.565 9.05 146.332 9.95C147.132 10.85 147.532 12.2 147.532 14C147.532 15.8 146.815 18.4667 145.382 22H147.282L147.182 22.9H144.982C143.848 25.7333 143.282 27.8833 143.282 29.35H142.382C142.382 27.6167 142.932 25.4667 144.032 22.9H141.132C140.132 28.1333 138.848 35.3333 137.282 44.5H131.232L135.082 22.9H132.032L132.132 22H135.232L136.032 17.7C136.565 14.4 137.382 12.0667 138.482 10.7C139.615 9.3 141.248 8.6 143.382 8.6ZM146.582 13.9C146.582 12.7 146.298 11.6667 145.732 10.8C145.198 9.93333 144.532 9.5 143.732 9.5C143.398 10.8 142.582 14.9667 141.282 22H144.382C145.848 18.6667 146.582 15.9667 146.582 13.9ZM162.772 41.45C159.839 41.45 158.239 40.1667 157.972 37.6C156.505 40.1667 154.655 41.45 152.422 41.45C150.189 41.45 148.405 40.7833 147.072 39.45C145.772 38.0833 145.122 36.1833 145.122 33.75C145.122 29.95 146.055 26.9667 147.922 24.8C149.789 22.6333 152.205 21.55 155.172 21.55C157.605 21.55 159.222 22.7 160.022 25C160.189 24 160.372 23 160.572 22C163.039 22 164.872 21.9 166.072 21.7L166.722 21.55L163.272 40.45C164.272 40.35 165.105 39.8833 165.772 39.05L166.522 39.65C165.522 40.85 164.272 41.45 162.772 41.45ZM150.772 36.3C150.772 37.8 150.955 38.85 151.322 39.45C151.722 40.0167 152.322 40.3 153.122 40.3C153.922 40.3 154.739 39.8667 155.572 39C156.672 37.8667 157.555 36.4333 158.222 34.7C158.322 34.2667 158.505 33.2333 158.772 31.6C159.072 29.9333 159.322 28.5667 159.522 27.5C159.422 26.2333 159.072 25.1333 158.472 24.2C157.872 23.2667 157.122 22.8 156.222 22.8C154.589 22.8 153.272 24.2667 152.272 27.2C151.272 30.1 150.772 33.1333 150.772 36.3ZM172.541 40.15C175.841 40.15 177.491 37.7167 177.491 32.85C177.491 31.65 177.307 30.2333 176.941 28.6C176.607 26.9667 176.407 25.95 176.341 25.55C174.307 27.65 172.024 28.9167 169.491 29.35V28.15C171.891 27.6167 174.141 26.25 176.241 24.05V23.85C176.241 23.05 176.357 22.2667 176.591 21.5C176.824 20.7333 177.057 20.1667 177.291 19.8L177.641 19.25H178.841C178.841 20.7167 179.074 22.0667 179.541 23.3C180.007 24.5 180.524 25.4833 181.091 26.25C181.657 26.9833 182.174 27.9667 182.641 29.2C183.107 30.4 183.341 31.7333 183.341 33.2C183.341 35.5667 182.441 37.5333 180.641 39.1C178.874 40.6667 176.741 41.45 174.241 41.45C171.741 41.45 169.841 40.8833 168.541 39.75C167.274 38.6167 166.641 37.3167 166.641 35.85C166.641 34.35 167.007 33.2833 167.741 32.65C168.474 31.9833 169.341 31.65 170.341 31.65C171.341 31.65 172.157 31.9833 172.791 32.65C173.457 33.2833 173.791 34.1167 173.791 35.15C173.791 36.15 173.474 37 172.841 37.7C172.207 38.4 171.391 38.75 170.391 38.75C169.957 38.75 169.507 38.6833 169.041 38.55C169.774 39.6167 170.941 40.15 172.541 40.15ZM187.605 22L188.955 14.6C191.421 14.6 193.255 14.5 194.455 14.3L195.105 14.15C194.638 16.4833 194.121 19.1 193.555 22H199.755L199.655 22.9H193.405C191.738 31.5 190.905 36.6833 190.905 38.45C190.905 39.5167 191.471 40.05 192.605 40.05C193.738 40.05 194.771 39.3333 195.705 37.9C196.638 36.4667 197.305 34.9167 197.705 33.25L198.605 33.55C197.371 38.8167 194.821 41.45 190.955 41.45C189.355 41.45 188.021 41.0167 186.955 40.15C185.888 39.25 185.355 38.0167 185.355 36.45C185.355 34.85 186.038 30.3333 187.405 22.9H184.955L185.055 22H187.605ZM220.763 50.7C224.263 50.7 226.979 49.9833 228.913 48.55C230.879 47.1167 231.863 45.2167 231.863 42.85C231.863 41.15 231.429 39.65 230.562 38.35C229.729 37.05 228.679 35.9833 227.413 35.15C226.146 34.2833 224.846 33.4333 223.513 32.6C222.213 31.7667 220.996 30.7167 219.863 29.45C218.729 28.1833 217.979 26.75 217.613 25.15C214.579 24.25 212.579 22.3667 211.613 19.5C211.246 18.4 211.063 17.25 211.063 16.05C211.063 14.85 211.246 13.6 211.613 12.3C212.379 9.73333 213.629 7.8 215.363 6.5L215.913 7.3C214.346 8.43333 213.213 10.2 212.513 12.6C212.179 13.8 212.013 14.95 212.013 16.05C212.013 17.15 212.179 18.2 212.513 19.2C213.313 21.6333 214.963 23.2667 217.463 24.1C217.396 23.7333 217.363 23.1667 217.363 22.4C217.363 18.0333 218.946 14.5 222.113 11.8C225.279 9.1 229.146 7.75 233.713 7.75C236.713 7.75 239.113 8.56667 240.913 10.2C242.446 11.6333 243.213 13.4 243.213 15.5C243.213 17.5667 242.513 19.3667 241.113 20.9C239.713 22.4 237.829 23.15 235.463 23.15C234.163 23.15 233.096 22.9 232.263 22.4C230.563 23.7 228.546 24.6333 226.213 25.2C226.879 25.8333 228.429 27 230.863 28.7C233.329 30.4 235.163 32.0333 236.363 33.6C237.596 35.1333 238.213 36.9333 238.213 39C238.213 42.8 236.729 45.8833 233.763 48.25C230.829 50.6167 227.096 51.8 222.563 51.8C218.063 51.8 214.663 50.8 212.363 48.8C210.363 47.1 209.363 45.0167 209.363 42.55C209.363 40.1167 210.146 38.0333 211.713 36.3C213.313 34.5333 215.296 33.65 217.663 33.65C220.029 33.65 221.779 34.1833 222.913 35.25C224.046 36.2833 224.613 37.55 224.613 39.05C224.613 40.55 224.146 41.8833 223.213 43.05C222.313 44.2167 221.129 44.8 219.663 44.8C218.196 44.8 217.029 44.3333 216.163 43.4C215.363 42.6 214.913 41.6 214.813 40.4C214.779 40.0667 214.779 39.8667 214.813 39.8L215.763 39.85C215.729 41.0167 216.096 41.9833 216.863 42.75C217.496 43.45 218.413 43.8 219.613 43.8C220.846 43.8 221.829 43.3167 222.563 42.35C223.296 41.4167 223.663 40.3333 223.663 39.1C223.663 37.8333 223.229 36.8167 222.363 36.05C221.396 35.0833 219.846 34.6 217.713 34.6C215.579 34.6 213.813 35.3833 212.413 36.95C211.013 38.4833 210.313 40.3333 210.313 42.5C210.313 44.7 211.213 46.5667 213.013 48.1C214.079 49.0333 215.163 49.7 216.263 50.1C217.396 50.5 218.896 50.7 220.763 50.7ZM229.263 16.3C229.263 14.8333 229.629 13.6167 230.363 12.65C231.129 11.6833 232.163 11.2 233.463 11.2C235.696 11.2 236.813 12.4333 236.813 14.9C236.813 17.3333 235.596 19.6333 233.163 21.8C233.896 22.1333 234.663 22.3 235.463 22.3C237.529 22.3 239.179 21.6333 240.413 20.3C241.646 18.9333 242.263 17.35 242.263 15.55C242.263 13.7167 241.596 12.1667 240.263 10.9C238.629 9.43333 236.479 8.7 233.813 8.7C231.146 8.7 228.879 9.35 227.013 10.65C224.113 12.7167 222.663 15.3833 222.663 18.65C222.663 21.35 223.563 23.3167 225.363 24.55C227.596 24.05 229.663 23.15 231.563 21.85C230.029 20.4833 229.263 18.6333 229.263 16.3ZM233.413 12.1C232.413 12.1 231.629 12.4833 231.063 13.25C230.529 14.0167 230.263 15.0333 230.263 16.3C230.263 18.4667 230.946 20.1167 232.313 21.25C233.313 20.55 234.146 19.6 234.813 18.4C235.479 17.2 235.813 16.0167 235.813 14.85C235.813 13.0167 235.013 12.1 233.413 12.1ZM245.361 22L246.711 14.6C249.177 14.6 251.011 14.5 252.211 14.3L252.861 14.15C252.394 16.4833 251.877 19.1 251.311 22H257.511L257.411 22.9H251.161C249.494 31.5 248.661 36.6833 248.661 38.45C248.661 39.5167 249.227 40.05 250.361 40.05C251.494 40.05 252.527 39.3333 253.461 37.9C254.394 36.4667 255.061 34.9167 255.461 33.25L256.361 33.55C255.127 38.8167 252.577 41.45 248.711 41.45C247.111 41.45 245.777 41.0167 244.711 40.15C243.644 39.25 243.111 38.0167 243.111 36.45C243.111 34.85 243.794 30.3333 245.161 22.9H242.711L242.811 22H245.361ZM274.524 41.45C271.59 41.45 269.99 40.1667 269.724 37.6C268.257 40.1667 266.407 41.45 264.174 41.45C261.94 41.45 260.157 40.7833 258.824 39.45C257.524 38.0833 256.874 36.1833 256.874 33.75C256.874 29.95 257.807 26.9667 259.674 24.8C261.54 22.6333 263.957 21.55 266.924 21.55C269.357 21.55 270.974 22.7 271.774 25C271.94 24 272.124 23 272.324 22C274.79 22 276.624 21.9 277.824 21.7L278.474 21.55L275.024 40.45C276.024 40.35 276.857 39.8833 277.524 39.05L278.274 39.65C277.274 40.85 276.024 41.45 274.524 41.45ZM262.524 36.3C262.524 37.8 262.707 38.85 263.074 39.45C263.474 40.0167 264.074 40.3 264.874 40.3C265.674 40.3 266.49 39.8667 267.324 39C268.424 37.8667 269.307 36.4333 269.974 34.7C270.074 34.2667 270.257 33.2333 270.524 31.6C270.824 29.9333 271.074 28.5667 271.274 27.5C271.174 26.2333 270.824 25.1333 270.224 24.2C269.624 23.2667 268.874 22.8 267.974 22.8C266.34 22.8 265.024 24.2667 264.024 27.2C263.024 30.1 262.524 33.1333 262.524 36.3ZM282.693 22L284.043 14.6C286.509 14.6 288.343 14.5 289.543 14.3L290.193 14.15C289.726 16.4833 289.209 19.1 288.643 22H294.843L294.743 22.9H288.493C286.826 31.5 285.993 36.6833 285.993 38.45C285.993 39.5167 286.559 40.05 287.693 40.05C288.826 40.05 289.859 39.3333 290.793 37.9C291.726 36.4667 292.393 34.9167 292.793 33.25L293.693 33.55C292.459 38.8167 289.909 41.45 286.043 41.45C284.443 41.45 283.109 41.0167 282.043 40.15C280.976 39.25 280.443 38.0167 280.443 36.45C280.443 34.85 281.126 30.3333 282.493 22.9H280.043L280.143 22H282.693ZM303.456 39.65C302.456 40.85 301.206 41.45 299.706 41.45C298.206 41.45 297.023 41.0667 296.156 40.3C295.323 39.5333 294.906 38.5333 294.906 37.3C294.906 36.8667 295.173 35.05 295.706 31.85L297.356 22.9H295.256L295.356 22H297.506C299.973 22 301.789 21.9 302.956 21.7L303.656 21.55L300.206 40.45C301.206 40.35 302.039 39.8833 302.706 39.05L303.456 39.65ZM299.056 16.75C298.356 16.05 298.006 15.2 298.006 14.2C298.006 13.2 298.356 12.35 299.056 11.65C299.756 10.9167 300.606 10.55 301.606 10.55C302.606 10.55 303.456 10.9167 304.156 11.65C304.889 12.35 305.256 13.2 305.256 14.2C305.256 15.2 304.889 16.05 304.156 16.75C303.456 17.45 302.606 17.8 301.606 17.8C300.606 17.8 299.756 17.45 299.056 16.75ZM312.665 41.45C310.099 41.45 308.149 40.8167 306.815 39.55C305.482 38.25 304.815 36.6333 304.815 34.7C304.815 32.7333 304.982 31.0667 305.315 29.7C305.682 28.3 306.265 26.9667 307.065 25.7C307.865 24.4 309.065 23.3833 310.665 22.65C312.299 21.9167 314.315 21.55 316.715 21.55C319.149 21.55 321.032 22.2 322.365 23.5C323.732 24.7667 324.415 26.5167 324.415 28.75C324.415 32.55 323.399 35.6167 321.365 37.95C319.365 40.2833 316.465 41.45 312.665 41.45ZM310.465 36.3C310.465 38.9667 311.232 40.3 312.765 40.3C314.332 40.3 315.715 38.9667 316.915 36.3C318.149 33.6 318.765 30.4 318.765 26.7C318.765 23.9 317.999 22.5 316.465 22.5C314.965 22.5 313.582 23.7833 312.315 26.35C311.082 28.8833 310.465 32.2 310.465 36.3ZM344.736 40.45C345.536 40.45 346.369 39.9833 347.236 39.05L347.986 39.65C347.752 40.1167 347.236 40.5333 346.436 40.9C345.636 41.2667 344.752 41.45 343.786 41.45C340.752 41.45 339.236 40.0833 339.236 37.35C339.236 36.1833 339.536 34.1 340.136 31.1C340.736 28.1 341.036 26.1333 341.036 25.2C341.036 23.7667 340.352 23.05 338.986 23.05C337.886 23.05 336.819 23.7667 335.786 25.2C334.786 26.6333 333.952 28.6 333.286 31.1L331.586 40.45C332.619 40.35 333.469 39.8833 334.136 39.05L334.886 39.65C333.886 40.85 332.636 41.45 331.136 41.45C329.636 41.45 328.452 41.0667 327.586 40.3C326.752 39.5333 326.336 38.5333 326.336 37.3C326.336 36.8333 326.602 35 327.136 31.8L328.786 22.55C327.786 22.65 326.952 23.1167 326.286 23.95L325.536 23.35C326.536 22.15 327.786 21.55 329.286 21.55C330.819 21.55 332.002 21.9333 332.836 22.7C333.669 23.4667 334.086 24.55 334.086 25.95V26.25C335.452 23.1167 337.586 21.55 340.486 21.55C342.452 21.55 343.986 22.1167 345.086 23.25C346.186 24.35 346.736 25.8833 346.736 27.85C346.736 28.8833 346.419 30.8833 345.786 33.85C345.152 36.7833 344.802 38.9833 344.736 40.45ZM383.331 37.95H375.331L373.481 48.15H371.981L373.831 37.95H366.681L364.831 48.15H363.331L365.181 37.95H357.031L357.231 36.7H365.431L367.081 27.35H358.931L359.131 26.1H367.281L369.381 14.85H370.881L368.781 26.1H375.931L378.031 14.85H379.531L377.431 26.1H385.431L385.231 27.35H377.231L375.581 36.7H383.531L383.331 37.95ZM368.581 27.35L366.931 36.7H374.031L375.681 27.35H368.581ZM393.829 34.05C397.629 34.35 399.529 36.25 399.529 39.75C399.529 42.4833 398.363 44.75 396.029 46.55C393.729 48.3833 391.129 49.3 388.229 49.3C384.496 49.3 382.629 47.75 382.629 44.65L383.679 44.7C383.679 45.9667 384.113 46.8833 384.979 47.45C385.879 48.0167 386.963 48.3 388.229 48.3C390.396 48.3 392.063 47.5333 393.229 46C394.429 44.5 395.029 42.5167 395.029 40.05C395.029 38.5167 394.779 37.3167 394.279 36.45C393.813 35.55 393.179 35.1 392.379 35.1L390.979 35.2L390.679 34.2C391.946 33.7667 392.896 33.4167 393.529 33.15C394.196 32.85 394.879 32.4333 395.579 31.9C396.813 30.8667 397.429 29.2 397.429 26.9C397.429 25.7 397.079 24.8 396.379 24.2C395.679 23.6 394.929 23.3 394.129 23.3C394.063 23.3 394.013 23.3 393.979 23.3C393.213 23.3 392.413 23.6 391.579 24.2C390.779 24.7667 390.179 25.2833 389.779 25.75C389.413 26.2167 389.196 26.5333 389.129 26.7L388.279 26.25C388.513 25.7833 388.913 25.25 389.479 24.65C390.079 24.05 390.696 23.5333 391.329 23.1C392.929 22.0667 394.679 21.55 396.579 21.55C400.179 21.55 401.979 22.9333 401.979 25.7C401.979 27.5333 401.163 29.1667 399.529 30.6C397.929 32 396.029 33.15 393.829 34.05ZM415.833 21.55L408.483 41H402.583L408.483 24.05L404.933 24.8L404.683 23.8L415.833 21.55ZM430.485 28.3C430.485 26.2667 430.018 24.8833 429.085 24.15C428.151 23.3833 427.035 23 425.735 23C425.701 23 425.651 23 425.585 23C423.218 23.6667 421.368 24.9667 420.035 26.9C418.701 28.8333 418.035 30.75 418.035 32.65C418.035 34.95 418.868 36.45 420.535 37.15C421.235 37.45 421.901 37.6 422.535 37.6C423.168 37.6 423.785 37.4833 424.385 37.25C424.985 36.9833 425.435 36.7333 425.735 36.5C426.035 36.2667 426.185 36.1333 426.185 36.1L426.835 36.85C425.701 37.9833 424.318 38.55 422.685 38.55C421.051 38.55 419.685 38.0667 418.585 37.1C417.518 36.1333 416.985 34.65 416.985 32.65C416.985 29.7833 418.068 27.2167 420.235 24.95C422.435 22.6833 425.268 21.55 428.735 21.55C430.768 21.55 432.351 22.2 433.485 23.5C434.651 24.8 435.235 26.5833 435.235 28.85C435.235 30.9833 434.585 33.3333 433.285 35.9C432.718 36.9667 431.851 38.1667 430.685 39.5C429.551 40.8 428.218 42 426.685 43.1C425.185 44.2333 423.201 45.3167 420.735 46.35C418.301 47.4167 415.585 48.2833 412.585 48.95L412.335 48C418.268 46.4667 422.185 45 424.085 43.6C426.385 41.9 427.951 40.0333 428.785 38C429.918 35.2333 430.485 32 430.485 28.3Z" fill="#4D2222"/>
</g>
</g>
<defs>
<filter id="filter0_d_44_139" x="-21.0196" y="-18.6212" width="632.102" height="246.27" filterUnits="userSpaceOnUse" color-interpolation-filters="sRGB">
<feFlood flood-opacity="0" result="BackgroundImageFix"/>
<feColorMatrix in="SourceAlpha" type="matrix" values="0 0 0 0 0 0 0 0 0 0 0 0 0 0 0 0 0 0 127 0" result="hardAlpha"/>
<feOffset dx="75.3635" dy="75.3635"/>
<feGaussianBlur stdDeviation="50.2423"/>
<feComposite in2="hardAlpha" operator="out"/>
<feColorMatrix type="matrix" values="0 0 0 0 0 0 0 0 0 0 0 0 0 0 0 0 0 0 0.25 0"/>
<feBlend mode="normal" in2="BackgroundImageFix" result="effect1_dropShadow_44_139"/>
<feBlend mode="normal" in="SourceGraphic" in2="effect1_dropShadow_44_139" result="shape"/>
</filter>
<clipPath id="clip0_44_139">
<rect width="439" height="53" fill="white"/>
</clipPath>
</defs>
</svg>
