<svg width="100" height="100" viewBox="0 0 100 100" fill="none" xmlns="http://www.w3.org/2000/svg">
<path d="M98.0904 86.7383H89.5037C90.1913 85.0871 90.4231 83.2067 90.1642 81.3801C89.9053 79.5534 89.1697 77.8792 88.0681 76.6095C88.1175 76.5489 88.1692 76.4938 88.2164 76.4331C88.8791 75.6215 89.4021 74.6547 89.7544 73.5904C90.1066 72.526 90.2808 71.3857 90.2668 70.2372C90.2528 69.0886 90.0507 67.9552 89.6726 66.9043C89.2945 65.8533 88.7481 64.9063 88.0659 64.1193C88.1175 64.0615 88.1692 64.0036 88.2164 63.943C88.8791 63.1315 89.402 62.165 89.7542 61.1009C90.1064 60.0368 90.2807 58.8967 90.2666 57.7483C90.2526 56.6 90.0505 55.4668 89.6725 54.4161C89.2944 53.3654 88.7481 52.4186 88.0659 51.6319L88.2164 51.4555C88.8802 50.6442 89.4043 49.6773 89.7573 48.6125C90.1103 47.5477 90.285 46.4067 90.2712 45.2573C90.2574 44.108 90.0552 42.9738 89.6767 41.9222C89.2983 40.8707 88.7512 39.9232 88.0681 39.1362L88.2186 38.9599C89.1977 37.7598 89.8648 36.2306 90.1354 34.5657C90.4061 32.9007 90.2682 31.1748 89.7392 29.6059C89.2102 28.0371 88.3139 26.6958 87.1635 25.7516C86.0131 24.8074 84.6603 24.3026 83.276 24.3012H70.1175V17.1978C70.1163 15.6519 69.6151 14.1698 68.7238 13.0767C67.8325 11.9836 66.6241 11.3688 65.3636 11.3674H60.1964C59.9731 8.26375 58.8101 5.37524 56.9364 3.27115C55.0628 1.16705 52.6146 0 50.0741 0C47.5337 0 45.0855 1.16705 43.2118 3.27115C41.3382 5.37524 40.1752 8.26375 39.9519 11.3674H34.7847C33.5244 11.3696 32.3163 11.9845 31.4251 13.0775C30.534 14.1704 30.0326 15.6521 30.0308 17.1978V24.2984H16.7284C15.3245 24.2949 13.9522 24.8095 12.79 25.7753C11.6277 26.7411 10.7293 28.1134 10.2114 29.7138C9.69356 31.3142 9.58029 33.0687 9.88632 34.7491C10.1924 36.4295 10.9035 37.9581 11.9274 39.1362C11.878 39.1941 11.8263 39.2492 11.7769 39.3098C11.1141 40.1215 10.5911 41.0882 10.2389 42.1526C9.88669 43.2169 9.71243 44.3572 9.72647 45.5058C9.74051 46.6544 9.94256 47.7877 10.3206 48.8387C10.6987 49.8896 11.2451 50.8367 11.9274 51.6236C11.878 51.6815 11.8263 51.7366 11.7769 51.7972C11.1141 52.6089 10.5911 53.5756 10.2389 54.64C9.88669 55.7043 9.71243 56.8447 9.72647 57.9932C9.74051 59.1418 9.94256 60.2752 10.3206 61.3261C10.6987 62.377 11.2451 63.3241 11.9274 64.1111L11.7769 64.2874C11.114 65.0991 10.5909 66.0659 10.2387 67.1304C9.8865 68.1949 9.71234 69.3353 9.7266 70.484C9.74085 71.6327 9.94321 72.7661 10.3217 73.817C10.7001 74.8678 11.2469 75.8147 11.9296 76.6012C10.8257 77.8727 10.0889 79.55 9.83036 81.3801C9.5718 83.2102 9.80553 85.0937 10.4963 86.7466H1.90964C1.40335 86.7473 0.917976 86.9943 0.559977 87.4334C0.201979 87.8724 0.000594581 88.4677 0 89.0887C0.00237797 91.9812 0.940159 94.7544 2.60761 96.7999C4.27506 98.8455 6.536 99.9964 8.89443 100H91.1056C93.464 99.9964 95.7249 98.8455 97.3924 96.7999C99.0598 94.7544 99.9976 91.9812 100 89.0887C100.001 88.7805 99.9517 88.4752 99.856 88.1903C99.7603 87.9053 99.6198 87.6463 99.4424 87.428C99.265 87.2097 99.0544 87.0365 98.8224 86.9181C98.5904 86.7998 98.3416 86.7387 98.0904 86.7383V86.7383ZM86.4528 57.8728C86.4522 58.9079 86.1165 59.9003 85.5196 60.6319C84.9226 61.3635 84.1132 61.7745 83.2693 61.7745H66.1814V53.9602H83.2693C83.6879 53.9606 84.1022 54.0621 84.4888 54.2589C84.8753 54.4558 85.2265 54.7441 85.5221 55.1075C85.8177 55.4709 86.0521 55.9021 86.2118 56.3766C86.3715 56.8511 86.4534 57.3595 86.4528 57.8728ZM86.4528 45.3854C86.4522 46.4205 86.1165 47.4128 85.5196 48.1445C84.9226 48.8761 84.1132 49.2871 83.2693 49.2871H66.1814V41.4728H83.2693C84.113 41.4735 84.9221 41.8847 85.5189 42.6162C86.1157 43.3476 86.4516 44.3396 86.4528 45.3744V45.3854ZM86.4528 32.898C86.4522 33.933 86.1165 34.9254 85.5196 35.657C84.9226 36.3887 84.1132 36.7996 83.2693 36.7996H66.1814V28.9826H83.2693C84.1134 28.9833 84.9228 29.3949 85.5197 30.127C86.1166 30.859 86.4522 31.8517 86.4528 32.887V32.898ZM50.0685 4.69383C51.5959 4.69355 53.0723 5.36787 54.2275 6.59337C55.3827 7.81888 56.1394 9.51361 56.3591 11.3674H55.3459C55.028 9.95226 54.3407 8.70395 53.3891 7.81364C52.4376 6.92333 51.2743 6.44011 50.0775 6.43799C49.869 6.43799 49.669 6.5396 49.5215 6.72046C49.374 6.90131 49.2912 7.14661 49.2912 7.40238C49.2912 7.65815 49.374 7.90345 49.5215 8.0843C49.669 8.26516 49.869 8.36677 50.0775 8.36677C50.8544 8.36799 51.6133 8.65443 52.2563 9.18921C52.8994 9.72398 53.3972 10.4826 53.6856 11.3674L43.8004 11.3674C44.0196 9.51829 44.773 7.82728 45.9235 6.60237C47.074 5.37746 48.545 4.70015 50.0685 4.69383V4.69383ZM33.8388 17.1978C33.8394 16.894 33.9381 16.6029 34.1132 16.3881C34.2884 16.1733 34.5257 16.0523 34.7734 16.0515H65.3636C65.6115 16.0515 65.8492 16.1723 66.0245 16.3873C66.1998 16.6022 66.2982 16.8938 66.2982 17.1978V24.2984H64.2762C63.77 24.2992 63.2846 24.5461 62.9266 24.9852C62.5686 25.4243 62.3672 26.0196 62.3666 26.6405V62.7361C62.3673 62.8997 62.3414 63.0617 62.2902 63.2128C62.2369 63.3616 62.1606 63.4963 62.0656 63.6096C62.0189 63.667 61.9677 63.7187 61.9128 63.7639C61.7188 63.9217 61.4863 63.9925 61.2546 63.9643C61.0229 63.9362 60.8063 63.8109 60.6412 63.6096C60.5467 63.4957 60.4705 63.3611 60.4165 63.2128C60.3647 63.0619 60.338 62.8998 60.3379 62.7361V26.6405C60.3379 26.0194 60.1367 25.4236 59.7786 24.9844C59.4204 24.5452 58.9347 24.2984 58.4283 24.2984H52.7151C52.2088 24.2992 51.7234 24.5461 51.3654 24.9852C51.0074 25.4243 50.806 26.0196 50.8054 26.6405V50.5408C50.8054 50.5683 50.8054 50.5931 50.8054 50.6179C50.803 50.7202 50.7878 50.8215 50.7605 50.9182C50.7119 51.1056 50.6271 51.2757 50.5134 51.4142C50.4667 51.4717 50.4155 51.5233 50.3606 51.5685C50.1951 51.7042 50.0003 51.7761 49.8012 51.7752C49.7254 51.774 49.65 51.762 49.5765 51.7394C49.3947 51.6881 49.2281 51.5755 49.0957 51.4142C49.0533 51.3661 49.0135 51.3146 48.9767 51.2599C48.9143 51.1551 48.8658 51.0388 48.8329 50.9155C48.807 50.8174 48.7919 50.7154 48.7879 50.6124C48.7891 50.5867 48.7891 50.5609 48.7879 50.5352V26.6405C48.7879 26.0194 48.5867 25.4236 48.2286 24.9844C47.8705 24.5452 47.3848 24.2984 46.8783 24.2984H37.2627V18.559C37.2627 18.3032 37.1799 18.0579 37.0324 17.877C36.8849 17.6962 36.6849 17.5946 36.4764 17.5946C36.2678 17.5946 36.0678 17.6962 35.9204 17.877C35.7729 18.0579 35.6901 18.3032 35.6901 18.559V24.2984H33.8388V17.1978ZM56.5298 36.7886H54.6247V28.9826H56.5298V36.7886ZM54.6247 41.4728H56.5298V49.276H54.6247V41.4728ZM13.545 32.887C13.545 31.8515 13.8804 30.8584 14.4774 30.1262C15.0744 29.3939 15.8841 28.9826 16.7284 28.9826L44.9732 28.9826V36.7886H16.7284C15.8847 36.7879 15.0757 36.3767 14.4788 35.6452C13.882 34.9138 13.5462 33.9218 13.545 32.887V32.887ZM13.545 45.3744C13.5447 44.8617 13.6268 44.354 13.7867 43.8802C13.9466 43.4065 14.1812 42.9762 14.4769 42.6137C14.7726 42.2513 15.1236 41.964 15.51 41.7682C15.8964 41.5724 16.3104 41.472 16.7284 41.4728H44.9732V49.276H16.7284C15.8847 49.2753 15.0757 48.8641 14.4788 48.1326C13.882 47.4012 13.5462 46.4092 13.545 45.3744V45.3744ZM13.545 57.8618C13.5447 57.3491 13.6268 56.8414 13.7867 56.3677C13.9466 55.894 14.1812 55.4636 14.4769 55.1012C14.7726 54.7388 15.1236 54.4514 15.51 54.2557C15.8964 54.0599 16.3104 53.9595 16.7284 53.9602H45.8606L45.8965 54.0153C45.9549 54.1117 46.0133 54.2054 46.074 54.2908L46.1414 54.39C46.22 54.503 46.3009 54.6132 46.3863 54.7179C47.1931 55.7104 48.2615 56.3186 49.4003 56.4336C50.5392 56.5487 51.6743 56.1633 52.6027 55.3462C52.8198 55.1593 53.0235 54.95 53.2116 54.7207C53.2992 54.6132 53.3823 54.503 53.4609 54.3873L53.5216 54.2991C53.5868 54.2027 53.6519 54.1007 53.7126 53.996L53.7395 53.9547H56.5298V61.758H16.7284C15.887 61.7572 15.08 61.3483 14.4836 60.6204C13.8871 59.8925 13.5497 58.9048 13.545 57.8728V57.8618ZM57.6037 66.4476L57.615 66.4642C57.7183 66.6185 57.8284 66.7672 57.943 66.9105C58.7897 67.9481 59.9204 68.5632 61.1159 68.6365C62.3113 68.7098 63.4864 68.2361 64.4133 67.3073C64.5374 67.1831 64.6559 67.0506 64.7683 66.9105C64.8851 66.7672 64.9929 66.6185 65.0963 66.4642L65.1097 66.4476H83.2693C84.113 66.4476 84.9222 66.8587 85.5188 67.5904C86.1154 68.3221 86.4505 69.3145 86.4505 70.3493C86.4505 71.384 86.1154 72.3764 85.5188 73.1081C84.9222 73.8398 84.113 74.2509 83.2693 74.2509H16.7284C15.8847 74.2509 15.0756 73.8398 14.479 73.1081C13.8824 72.3764 13.5472 71.384 13.5472 70.3493C13.5472 69.3145 13.8824 68.3221 14.479 67.5904C15.0756 66.8587 15.8847 66.4476 16.7284 66.4476H57.6037ZM13.5472 82.8367C13.5478 81.8021 13.8832 80.8102 14.4796 80.0786C15.0761 79.3471 15.8849 78.9358 16.7284 78.935H83.2716C84.1153 78.935 84.9244 79.3461 85.521 80.0778C86.1176 80.8095 86.4528 81.8019 86.4528 82.8367C86.4528 83.8715 86.1176 84.8639 85.521 85.5956C84.9244 86.3272 84.1153 86.7383 83.2716 86.7383H16.7284C15.8849 86.7376 15.0761 86.3263 14.4796 85.5947C13.8832 84.8632 13.5478 83.8712 13.5472 82.8367V82.8367ZM91.1056 95.3076H8.89443C7.88461 95.3062 6.89801 94.936 6.06051 94.244C5.223 93.552 4.57258 92.5698 4.19222 91.4225H95.8078C95.4269 92.5693 94.7764 93.5512 93.939 94.2431C93.1016 94.935 92.1153 95.3055 91.1056 95.3076V95.3076Z" fill="#4D2222"/>
</svg>
