<svg width="105" height="108" viewBox="0 0 105 108" fill="none" xmlns="http://www.w3.org/2000/svg">
<path d="M83.934 89.8915C83.939 89.8861 83.9443 89.8803 83.9499 89.8741C83.9759 89.8455 84.0081 89.8092 84.0459 89.7651C84.1216 89.6767 84.2199 89.5568 84.3371 89.4026C84.5716 89.0941 84.8811 88.6496 85.236 88.0484C85.9462 86.8451 86.8342 85.0209 87.6666 82.4134C89.331 77.1996 90.7676 68.8711 90.1328 56.1229C89.8225 49.8903 89.9312 45.9179 90.2439 43.3313C90.5565 40.7459 91.0552 39.7069 91.4018 39.2058C91.5785 38.9503 91.7639 38.7625 92.0296 38.5168C92.0592 38.4895 92.0919 38.4596 92.1274 38.4272C92.3768 38.1996 92.7599 37.8502 93.0918 37.4215C93.9717 36.2852 94.3686 34.8324 94.3989 32.5483C94.4292 30.2663 94.0917 28.5363 93.2116 27.0626C92.3804 25.6708 91.1603 24.6998 90.0083 23.7831L89.9793 23.7601C89.9217 23.7142 89.8633 23.6678 89.8044 23.621C87.4956 21.786 84.217 19.1802 80.0715 12.2575C77.6718 8.24998 74.6385 5.5647 71.1725 3.95066C67.7276 2.34644 63.9738 1.85477 60.1907 2.03535C52.6911 2.39332 44.7248 5.4203 38.0563 8.23016C34.9485 9.53967 32.0725 10.0783 29.2304 10.5407C28.9589 10.5849 28.686 10.6286 28.412 10.6724C25.8795 11.0775 23.2523 11.4977 20.7425 12.4921C14.8794 14.8151 10.0859 20.0382 5.53034 33.2654C3.26426 39.845 2.10301 45.0479 2.00657 49.2018C1.909 53.4045 2.90231 56.6682 5.0655 59.1486C7.18117 61.5744 10.2005 62.9966 13.6235 63.9996C17.0452 65.0022 21.1424 65.6581 25.5944 66.3684C30.0463 67.0786 32.2737 67.8939 33.5105 68.8244C34.5983 69.6428 35.1135 70.697 35.57 72.7579C35.73 73.4803 35.8741 74.2868 36.0342 75.1832C36.8246 79.6083 38.0058 86.2219 43.4293 95.7025C46.853 101.687 51.2777 104.529 56.1091 105.072C60.7963 105.6 65.5001 103.92 69.5282 101.678C73.5878 99.4191 77.1916 96.4603 79.7587 94.0976C81.0484 92.9107 82.0903 91.8612 82.8125 91.1054C83.1739 90.7273 83.456 90.4219 83.6497 90.2087C83.7467 90.1021 83.8215 90.0185 83.8733 89.9602L83.9334 89.8923L83.934 89.8915Z" fill="white" stroke="#4D2222" stroke-width="4"/>
<path d="M51.7876 40.3581C51.7876 30.3041 43.6373 22.1538 33.5833 22.1538C23.5293 22.1538 15.3789 30.3041 15.3789 40.3581C15.3789 50.4121 23.5293 58.5625 33.5833 58.5625C43.6373 58.5625 51.7876 50.4121 51.7876 40.3581Z" fill="#4D2222"/>
<path fill-rule="evenodd" clip-rule="evenodd" d="M20.3418 40.3562C20.3418 47.6682 26.2693 53.5957 33.5813 53.5957Z" fill="white"/>
<path d="M80.9569 18.7695C80.9569 18.7695 67.7173 22.9069 62.7525 27.8717C57.7877 32.8365 57.7877 44.4211 55.3053 49.386C52.8229 54.3508 39.5833 59.3156 37.9284 65.9354C36.2734 72.5552 39.1768 87.7535 33.791 90.7595L56.1327 103.999C56.1327 103.999 59.5263 99.3012 60.2701 94.4814C61.0139 89.6615 59.5243 82.1579 60.2701 79.1749C61.925 72.5552 75.1646 67.5903 77.647 62.6255C80.1294 57.6607 80.1294 46.0761 85.0942 41.1113C90.0591 36.1464 103.299 32.0091 103.299 32.0091L104.149 32.1224L80.9569 18.7695Z" fill="#4D2222"/>
<path fill-rule="evenodd" clip-rule="evenodd" d="M48.3295 100.656C48.3295 100.656 51.817 95.5903 51.817 88.7569C51.817 81.9236 49.3728 73.382 55.076 69.1112C60.7791 64.8404 66.2027 62.2779 68.9266 58.007C71.6504 53.7362 72.1855 39.2154 75.4445 35.7988C78.7034 32.3821 93.3688 25.5488 93.3688 25.5488L84.4066 20.4238C84.4066 20.4238 69.7413 25.5488 67.2971 30.6738C64.8528 35.7988 63.1867 49.0967 59.9644 53.7362C58.0204 56.5352 48.558 61.8508 43.6696 68.257C39.2615 74.0337 44.1533 84.1084 40.0796 94.3584C36.0059 104.608 48.3295 100.656 48.3295 100.656V100.656Z" fill="white"/>
</svg>
