<svg width="108" height="100" viewBox="0 0 108 100" fill="none" xmlns="http://www.w3.org/2000/svg">
<path d="M27.4503 18.627V2.9411C27.4503 2.16107 27.7601 1.41299 28.3117 0.861428C28.8633 0.309865 29.6113 0 30.3914 0C31.1714 0 31.9195 0.309865 32.471 0.861428C33.0226 1.41299 33.3325 2.16107 33.3325 2.9411V18.627C33.3325 19.407 33.0226 20.1551 32.471 20.7066C31.9195 21.2582 31.1714 21.5681 30.3914 21.5681C29.6113 21.5681 28.8633 21.2582 28.3117 20.7066C27.7601 20.1551 27.4503 19.407 27.4503 18.627V18.627ZM46.0772 21.5681C46.8572 21.568 47.6053 21.2581 48.1568 20.7066C48.7084 20.155 49.0183 19.407 49.0183 18.627V2.9411C49.0183 2.16107 48.7085 1.41299 48.1569 0.861428C47.6053 0.309865 46.8572 0 46.0772 0C45.2972 0 44.5491 0.309865 43.9975 0.861428C43.446 1.41299 43.1361 2.16107 43.1361 2.9411V18.627C43.1362 19.407 43.446 20.155 43.9976 20.7066C44.5491 21.2581 45.2972 21.568 46.0772 21.5681V21.5681ZM61.7631 21.5681C62.5431 21.568 63.2912 21.2581 63.8427 20.7066C64.3943 20.155 64.7041 19.407 64.7042 18.627V2.9411C64.7042 2.16107 64.3943 1.41299 63.8428 0.861428C63.2912 0.309865 62.5431 0 61.7631 0C60.9831 0 60.235 0.309865 59.6834 0.861428C59.1318 1.41299 58.822 2.16107 58.822 2.9411V18.627C58.822 19.407 59.1319 20.155 59.6835 20.7066C60.235 21.2581 60.9831 21.568 61.7631 21.5681V21.5681ZM107.84 49.9987V53.9201C107.834 58.7678 105.94 63.4225 102.56 66.8973C99.1799 70.3721 94.5793 72.3939 89.7337 72.5339C86.8487 81.0556 81.547 88.554 74.4748 94.1152H89.2133C89.9934 94.1152 90.7414 94.425 91.293 94.9766C91.8446 95.5282 92.1544 96.2762 92.1544 97.0563C92.1544 97.8363 91.8446 98.5844 91.293 99.1359C90.7414 99.6875 89.9934 99.9974 89.2133 99.9974H64.1209C64.1041 99.9976 64.0871 100 64.0701 100C64.0575 100 64.045 99.9976 64.0323 99.9974H28.0599C28.0331 99.9971 28.0063 99.9983 27.9795 99.9974H2.9411C2.16107 99.9974 1.41299 99.6875 0.861428 99.1359C0.309865 98.5844 0 97.8363 0 97.0563C0 96.2762 0.309865 95.5282 0.861428 94.9766C1.41299 94.425 2.16107 94.1152 2.9411 94.1152H17.6796C12.183 89.7982 7.7364 84.2914 4.67423 78.0087C1.61205 71.726 0.0139305 64.8308 0 57.8416V34.3128C3.76981e-05 33.5328 0.309915 32.7847 0.86147 32.2332C1.41302 31.6816 2.16108 31.3718 2.9411 31.3717H89.2133C94.1518 31.3773 98.8864 33.3416 102.378 36.8336C105.87 40.3256 107.835 45.0602 107.84 49.9987V49.9987ZM84.6856 68.976C84.7081 68.8738 84.7362 68.7728 84.7696 68.6735C85.7646 65.1488 86.2702 61.5041 86.2722 57.8416V37.2539H5.8822V57.8416C5.89731 65.4267 8.05124 72.8538 12.0967 79.27C16.1421 85.6863 21.915 90.8316 28.7525 94.1152H63.4019C68.5181 91.6575 73.0582 88.1481 76.7257 83.8162C80.3932 79.4844 83.1055 74.4275 84.6856 68.976V68.976ZM101.958 49.9987C101.954 47.1313 100.985 44.3487 99.2062 42.0995C97.4277 39.8503 94.9436 38.2654 92.1544 37.6003V57.8416C92.1529 60.743 91.8753 63.6377 91.3256 66.4866C94.2959 65.9837 96.9926 64.4464 98.9384 62.1465C100.884 59.8467 101.954 56.9327 101.958 53.9201V49.9987Z" fill="#4D2222"/>
</svg>
