<svg width="137" height="137" viewBox="0 0 137 137" fill="none" xmlns="http://www.w3.org/2000/svg">
<path d="M4.88481 0.000293979C2.20284 4.09091 1.54161 9.11571 2.57787 14.9185C3.81326 21.8385 7.55178 29.6367 12.9551 36.9791C23.7625 51.664 41.2074 64.3583 56.7271 66.2828L57.8119 66.4211L58.5105 67.2576L115.619 136.197C121.312 137.557 124.987 136.71 126.898 134.817C128.824 132.91 129.712 129.227 128.285 123.383L4.8854 0L4.88481 0.000293979ZM115.206 0.680347L83.2921 32.5946C79.7624 36.1237 79.7318 40.007 81.5543 44.2499L82.3082 46.006L80.9293 47.3296L70.2117 57.5507L78.9165 66.2552L89.092 55.5096L90.4156 54.1125L92.171 54.8755C96.6317 56.7977 100.862 56.7188 104.139 53.4415L136.053 21.5273L131.908 17.3817L111.152 38.128L107.273 34.2403L128.019 13.4946L123.598 9.07218L102.852 29.8185L98.9639 25.9306L119.71 5.18482L115.206 0.680347ZM55.1917 71.8809L0.656245 123.916C-0.689448 129.49 0.172678 132.972 1.98929 134.771C3.80649 136.571 7.32147 137.397 12.8266 136.067L63.7776 82.2494L55.1917 71.8809Z" fill="black"/>
</svg>
